<?xml version="1.0" encoding="utf-8"?>
<!-- Generator: Adobe Illustrator 21.0.2, SVG Export Plug-In . SVG Version: 6.00 Build 0)  -->
<!DOCTYPE svg PUBLIC "-//W3C//DTD SVG 1.1//EN" "http://www.w3.org/Graphics/SVG/1.1/DTD/svg11.dtd">
<svg version="1.1" id="Layer_1" xmlns="http://www.w3.org/2000/svg" xmlns:xlink="http://www.w3.org/1999/xlink" x="0px" y="0px"
	 viewBox="0 0 126.3 79.2" style="enable-background:new 0 0 126.3 79.2;" xml:space="preserve">
<style type="text/css">
	.st0{fill:#DC143C;}
</style>
<g>
	<path class="st0" d="M101.4,29.3c-12.7,0-23.2,9.5-24.7,21.8L74.7,51c-0.2-1.2-0.7-2.3-1.5-3.2l2.2-6.3c0,0,0,0,0.1-0.1
		c0.4-0.7,1-1.4,1.6-2.1c0.6-0.7,1.2-1.3,1.9-1.9c1.4-1.2,2.9-2.2,4.6-2.7l0,0c0.4-0.1,0.6-0.5,0.5-0.9c-0.1-0.3-0.4-0.5-0.7-0.5
		c-2.1,0.2-4,1-5.8,2l0.6-1.8c0.2-0.5,0.1-1.1-0.2-1.5L85,12.7c0,0-0.1,0-0.1,0L83.1,12c-0.1,0-0.1,0-0.1-0.1l-4.2,11.9L66,25.7
		L44.8,14.3c-0.1-0.3-0.2-0.6-0.4-0.9l1-2.2l1.1,0.6c0.2,0.1,0.4,0.1,0.5,0.1c0.4,0,0.8-0.2,1-0.6c0.3-0.5,0.1-1.2-0.4-1.5l-1.2-0.7
		l0.3-0.7c0.3-0.5,0-1.2-0.5-1.5c-0.6-0.3-1.2,0-1.5,0.5L44.5,8l-4.2-2.3l1.9-0.8c0.3,0.3,0.7,0.4,1.1,0.4c0.3,0,0.5-0.1,0.8-0.2
		l3.4-1.5c0.9-0.4,1.4-1.5,0.9-2.5C48.1,0.2,47-0.3,46,0.2l-3.4,1.5c-0.7,0.3-1,0.9-1.1,1.6l-4.7,2.1c-0.5-0.4-1.3-0.5-1.9-0.2
		l-5.6,2.5c-0.9,0.4-1.4,1.5-0.9,2.5c0.3,0.7,1,1.1,1.7,1.1c0.3,0,0.5-0.1,0.8-0.2l5.6-2.5c0.7-0.3,1-0.9,1.1-1.6l0.5-0.2
		C38,6.9,38.1,7,38.3,7.1l5.3,3l-1.1,2.4c-0.8,0.1-1.5,0.5-1.8,1.3l-7.6,17c-2.5-0.9-5.3-1.4-8.1-1.4C11.2,29.3,0,40.5,0,54.3
		C0,68,11.2,79.2,24.9,79.2c13.7,0,24.9-11.2,24.9-24.9c0-9.3-5.2-17.5-12.8-21.8l6.2-14l21.2,30.2c-0.6,0.9-0.9,1.9-0.9,3
		c0,1.4,0.5,2.6,1.3,3.6L62,62.2l-2.7,0c-0.9,0-1.6,0.7-1.6,1.6c0,0.9,0.7,1.6,1.6,1.6l6.2,0.1c0.9,0,1.6-0.7,1.6-1.6
		c0-0.9-0.7-1.6-1.6-1.6l-0.9,0l3.1-5.1c0.5,0.1,1,0.2,1.5,0.2c2.1,0,3.9-1.2,4.9-2.9l2.4,0.1c0.2,13.6,11.3,24.6,24.9,24.6
		c13.7,0,24.9-11.2,24.9-24.9C126.3,40.5,115.1,29.3,101.4,29.3z M89.6,38.6l6.7,10.1c-1.1,0.9-2,2.1-2.4,3.5l-11.9-0.7
		C82.7,46.2,85.5,41.6,89.6,38.6z M74.5,33.3C74.6,33.3,74.6,33.3,74.5,33.3L70,46.2c-0.1,0-0.1,0-0.2,0v-5.1h0.1
		c0.5,0,0.9-0.4,0.9-0.9v-5.8c0.4,0,0.7-0.3,0.7-0.7v-2.1L74.5,33.3z M77.9,26.2l-1.8,5C76,31.1,75.9,31,75.8,31l-4.5-2.4
		c-0.1-0.2-0.3-0.3-0.6-0.3l-1.5-0.8L77.9,26.2z M44.6,54.3c0,10.8-8.8,19.7-19.7,19.7c-10.8,0-19.7-8.8-19.7-19.7
		c0-10.8,8.8-19.7,19.7-19.7c2.1,0,4.1,0.3,6,0.9L30.3,37c-0.3,0.7-0.2,1.4,0.1,2l-3.8,8.4c-0.5-0.1-1.1-0.2-1.7-0.2
		c-4,0-7.2,3.2-7.2,7.2c0,4,3.2,7.2,7.2,7.2c4,0,7.2-3.2,7.2-7.2c0-2.4-1.2-4.6-3.1-5.9l3.8-8.4c0.6-0.1,1.2-0.6,1.5-1.2l0.6-1.4
		C40.7,40.8,44.6,47.1,44.6,54.3z M47.8,18.9l18.9,10.2v4.6c0,0.4,0.3,0.6,0.6,0.7v5.8c0,0.5,0.4,0.8,0.8,0.9v5.2
		c-0.3,0.1-0.6,0.1-0.9,0.2L47.8,18.9z M101.4,73.9c-10.6,0-19.3-8.5-19.7-19l11.9,0.7c0.6,3.3,3.5,5.8,7,5.8c4,0,7.2-3.2,7.2-7.2
		c0-4-3.2-7.2-7.2-7.2c-0.9,0-1.7,0.2-2.5,0.4l-6.8-10.2c2.9-1.7,6.4-2.7,10-2.7c10.8,0,19.7,8.8,19.7,19.7
		C121.1,65.1,112.2,73.9,101.4,73.9z"/>
	<path class="st0" d="M88.5,29.4l-2.9,1.7c-0.4,0.2-0.6,0.8-0.3,1.2l0.3,0.5c0.2,0.4,0.8,0.6,1.2,0.3l2.9-1.7
		c0.4-0.2,0.6-0.8,0.3-1.2l-0.3-0.5C89.4,29.3,88.9,29.2,88.5,29.4z"/>
	<path class="st0" d="M74,7.4c-0.5,0.3-0.1,1,0.4,0.9c2.1,0,4.8,0.3,7.4,0.9c0.2,0,0.3,0.1,0.5,0.1c0.2,0,0.3,0.1,0.5,0.1
		c-0.2,0.6,0,1.2,0.6,1.5c0.1,0,0.1,0.1,0.2,0.1l1.8,0.7c0,0,0.1,0,0.1,0c0.1,0,0.2,0.1,0.4,0.1c0.5,0,1-0.3,1.2-0.8l0.1-0.2
		c0,0,0,0,0,0c0.1,0,0.2,0.1,0.3,0.1c0,0,0.1,0,0.1,0.1c0.1,0.1,0.3,0.1,0.5,0.2c0.9,0.3,1.8,0.4,2.6,0.1c2.4-0.9,5-2.4,7-4.1
		c0.6-0.5,0.3-1.4-0.5-1.6c-4.9-0.8-15.2-0.7-19,0.2c-0.4,0.1-0.7,0.2-1.1,0.3C76,6.3,74.9,6.8,74,7.4z"/>
</g>
<g>
</g>
<g>
</g>
<g>
</g>
<g>
</g>
<g>
</g>
<g>
</g>
</svg>
