<?xml version="1.0" encoding="utf-8"?>
<!-- Generator: Adobe Illustrator 21.0.2, SVG Export Plug-In . SVG Version: 6.00 Build 0)  -->
<!DOCTYPE svg PUBLIC "-//W3C//DTD SVG 1.1//EN" "http://www.w3.org/Graphics/SVG/1.1/DTD/svg11.dtd">
<svg version="1.1" id="Layer_1" xmlns="http://www.w3.org/2000/svg" xmlns:xlink="http://www.w3.org/1999/xlink" x="0px" y="0px"
	 viewBox="0 0 197.4 171" style="enable-background:new 0 0 197.4 171;" xml:space="preserve">
<style type="text/css">
	.st0{fill-rule:evenodd;clip-rule:evenodd;fill:#DC143C;}
</style>
<path class="st0" d="M3.7,11.6h21.6v14.2c0,6.8,5.5,12.3,12.3,12.3c6.8,0,12.3-5.5,12.3-12.3V11.6h16.3v14.2
	c0,6.8,5.5,12.3,12.3,12.3c6.8,0,12.3-5.5,12.3-12.3V11.6h16.3v14.2c0,6.8,5.5,12.3,12.3,12.3c6.8,0,12.3-5.5,12.3-12.3V11.6h16.3
	v14.2c0,6.8,5.5,12.3,12.3,12.3c6.8,0,12.3-5.5,12.3-12.3V11.6h21.6c2,0,3.7,1.7,3.7,3.7v152.1c0,2-1.7,3.7-3.7,3.7H3.7
	c-2,0-3.7-1.7-3.7-3.7V15.3C0,13.2,1.7,11.6,3.7,11.6L3.7,11.6z M13.7,57.3h170.1c1.2,0,2.1,1,2.1,2.1v97.9c0,1.1-1,2.1-2.1,2.1
	H13.7c-1.1,0-2.1-0.9-2.1-2.1V59.4C11.6,58.2,12.5,57.3,13.7,57.3L13.7,57.3z M30,7.5C30,3.3,33.4,0,37.5,0C41.6,0,45,3.3,45,7.5
	v14.2c0,4.1-3.3,7.5-7.5,7.5c-4.1,0-7.5-3.3-7.5-7.5V7.5L30,7.5z M70.8,7.5c0-4.1,3.3-7.5,7.5-7.5c4.1,0,7.5,3.3,7.5,7.5v14.2
	c0,4.1-3.3,7.5-7.5,7.5c-4.1,0-7.5-3.3-7.5-7.5V7.5L70.8,7.5z M111.7,7.5c0-4.1,3.3-7.5,7.5-7.5c4.1,0,7.5,3.3,7.5,7.5v14.2
	c0,4.1-3.3,7.5-7.5,7.5c-4.1,0-7.5-3.3-7.5-7.5V7.5L111.7,7.5z M152.5,7.5c0-4.1,3.3-7.5,7.5-7.5c4.1,0,7.5,3.3,7.5,7.5v14.2
	c0,4.1-3.3,7.5-7.5,7.5c-4.1,0-7.5-3.3-7.5-7.5V7.5L152.5,7.5z M53.6,116.8h16.2c0.1,2.9,0.9,5.1,2.2,6.6c1.4,1.4,3.5,2.1,6.2,2.1
	c2.4,0,4.2-0.6,5.5-1.8c1.3-1.2,1.9-2.9,1.9-5.2c0-2.3-0.8-3.9-2.3-5c-1.5-1-4-1.6-7.4-1.6h-1.5v-10.2h1.2c3.2,0,5.5-0.5,7.1-1.5
	c1.6-1,2.4-2.6,2.4-4.6c0-1.8-0.6-3.2-1.7-4.1c-1.1-0.9-2.8-1.4-4.9-1.4c-2.4,0-4.3,0.5-5.5,1.6c-1.3,1.1-2,2.7-2.1,4.9H55.1
	c0.1-6,2.4-10.9,6.7-14.5c4.4-3.7,10.1-5.5,17.3-5.5c6.9,0,12.3,1.6,16.4,4.7c4.1,3.2,6.2,7.3,6.2,12.5c0,2.7-0.5,5-1.6,6.9
	c-1.1,1.9-2.7,3.5-4.9,4.7c2.7,1,4.8,2.7,6.1,4.8c1.3,2.2,2,5,2,8.4c0,6.4-2.2,11.5-6.7,15.1c-4.5,3.6-10.7,5.5-18.8,5.5
	c-7.4,0-13.2-1.9-17.6-5.8c-4.3-3.9-6.5-9.1-6.5-15.7V116.8L53.6,116.8z M124.1,137.8v-34.5h-13.3V90.9c5.5-0.1,9.6-1.1,12.2-3
	c2.6-1.9,4.3-5,5-9.5h13.4v59.3H124.1L124.1,137.8z"/>
<g>
</g>
<g>
</g>
<g>
</g>
<g>
</g>
<g>
</g>
<g>
</g>
</svg>
