<?xml version="1.0" encoding="utf-8"?>
<!-- Generator: Adobe Illustrator 21.0.2, SVG Export Plug-In . SVG Version: 6.00 Build 0)  -->
<!DOCTYPE svg PUBLIC "-//W3C//DTD SVG 1.1//EN" "http://www.w3.org/Graphics/SVG/1.1/DTD/svg11.dtd">
<svg version="1.1" id="Layer_1" xmlns="http://www.w3.org/2000/svg" xmlns:xlink="http://www.w3.org/1999/xlink" x="0px" y="0px"
	 viewBox="0 0 194.3 109.4" style="enable-background:new 0 0 194.3 109.4;" xml:space="preserve">
<style type="text/css">
	.st0{fill:#DC143C;}
	.st1{fill:#FFFFFF;}
</style>
<path class="st0" d="M49.5,106.7l-45.7-4.9c-2.3-0.2-4-2.3-3.8-4.7l7.5-69.8c0.1-0.8,0.4-1.5,0.9-2.1c0.2-0.3,0.4-0.5,0.7-0.7
	L34.8,3.3c0.8-0.6,1.8-0.9,2.8-0.8c1,0.1,1.9,0.6,2.5,1.4l20.1,25.5c0.1,0.2,0.3,0.4,0.4,0.6c0.7,0.9,1.1,2,1,3.2l-7.5,69.8
	C53.9,105.3,51.8,107,49.5,106.7L49.5,106.7z"/>
<path class="st0" d="M59.7,40.8l0.8-7.7c0.1-0.9-0.2-1.8-0.8-2.4c-0.1-0.2-0.2-0.4-0.3-0.6L39.3,4.6c-0.9-1.2-2.6-1.3-3.8-0.4
	L9.7,25.4c-0.2,0.2-0.3,0.3-0.5,0.5c-0.3,0.4-0.6,1-0.6,1.6L1.1,97.3c-0.1,1.3,0.6,2.5,1.7,3.1C4.8,75.9,30,43.4,59.7,40.8z"/>
<path class="st1" d="M49.9,105.6c-0.1,0-0.2,0-0.3,0l-1.9-0.2l0.1-0.5l1.9,0.2c0.1,0,0.2,0,0.3,0V105.6L49.9,105.6z M50.6,105.5
	l-0.1-0.5c0.7-0.1,1.2-0.5,1.6-1.1l0.5,0.3C52.1,104.9,51.4,105.4,50.6,105.5L50.6,105.5z M45.5,105.2l-2.2-0.2l0.1-0.5l2.2,0.2
	L45.5,105.2L45.5,105.2z M41.2,104.7l-2.2-0.2l0.1-0.5l2.2,0.2L41.2,104.7L41.2,104.7z M36.8,104.2l-2.2-0.2l0.1-0.5l2.2,0.2
	L36.8,104.2L36.8,104.2z M32.5,103.8l-2.2-0.2l0.1-0.5l2.2,0.2L32.5,103.8L32.5,103.8z M28.1,103.3l-2.2-0.2l0.1-0.5l2.2,0.2
	L28.1,103.3L28.1,103.3z M23.7,102.8l-2.2-0.2l0.1-0.5l2.2,0.2L23.7,102.8L23.7,102.8z M19.4,102.4l-2.2-0.2l0.1-0.5l2.2,0.2
	L19.4,102.4L19.4,102.4z M53.1,102l-0.5-0.1l0.2-2.2l0.5,0.1L53.1,102L53.1,102z M15,101.9l-2.2-0.2l0.1-0.5l2.2,0.2L15,101.9
	L15,101.9z M10.7,101.4l-2.2-0.2l0.1-0.5l2.2,0.2L10.7,101.4L10.7,101.4z M6.3,101l-2.2-0.2l0.1-0.5l2.2,0.2L6.3,101L6.3,101z
	 M2,99.8c-0.6-0.6-0.9-1.4-0.9-2.2l0.5,0c0,0.7,0.3,1.3,0.7,1.8L2,99.8L2,99.8z M53.6,97.6L53,97.6l0.2-2.2l0.5,0.1L53.6,97.6
	L53.6,97.6z M1.9,95.5l-0.5-0.1l0.2-2.2l0.5,0.1L1.9,95.5L1.9,95.5z M54,93.3l-0.5-0.1l0.2-2.2l0.5,0.1L54,93.3L54,93.3z M2.4,91.1
	l-0.5-0.1L2,88.9l0.5,0.1L2.4,91.1L2.4,91.1z M54.5,88.9l-0.5-0.1l0.2-2.2l0.5,0.1L54.5,88.9L54.5,88.9z M2.8,86.8l-0.5-0.1l0.2-2.2
	l0.5,0.1L2.8,86.8L2.8,86.8z M55,84.6l-0.5-0.1l0.2-2.2l0.5,0.1L55,84.6L55,84.6z M3.3,82.4l-0.5-0.1L3,80.2l0.5,0.1L3.3,82.4
	L3.3,82.4z M55.4,80.2l-0.5-0.1l0.2-2.2l0.5,0.1L55.4,80.2L55.4,80.2z M3.8,78.1L3.2,78l0.2-2.2L4,75.9L3.8,78.1L3.8,78.1z
	 M55.9,75.8l-0.5-0.1l0.2-2.2l0.5,0.1L55.9,75.8L55.9,75.8z M4.2,73.7l-0.5-0.1l0.2-2.2l0.5,0.1L4.2,73.7L4.2,73.7z M56.4,71.5
	l-0.5-0.1l0.2-2.2l0.5,0.1L56.4,71.5L56.4,71.5z M4.7,69.3l-0.5-0.1l0.2-2.2l0.5,0.1L4.7,69.3L4.7,69.3z M56.8,67.1l-0.5-0.1
	l0.2-2.2l0.5,0.1L56.8,67.1L56.8,67.1z M5.2,65l-0.5-0.1l0.2-2.2l0.5,0.1L5.2,65L5.2,65z M57.3,62.8l-0.5-0.1l0.2-2.2l0.5,0.1
	L57.3,62.8L57.3,62.8z M5.6,60.6l-0.5-0.1l0.2-2.2l0.5,0.1L5.6,60.6L5.6,60.6z M57.8,58.4l-0.5-0.1l0.2-2.2l0.5,0.1L57.8,58.4
	L57.8,58.4z M6.1,56.3l-0.5-0.1L5.8,54l0.5,0.1L6.1,56.3L6.1,56.3z M58.2,54.1L57.7,54l0.2-2.2l0.5,0.1L58.2,54.1L58.2,54.1z
	 M6.6,51.9L6,51.9l0.2-2.2l0.5,0.1L6.6,51.9L6.6,51.9z M58.7,49.7l-0.5-0.1l0.2-2.2l0.5,0.1L58.7,49.7L58.7,49.7z M7,47.6l-0.5-0.1
	l0.2-2.2l0.5,0.1L7,47.6L7,47.6z M59.2,45.4l-0.5-0.1l0.2-2.2l0.5,0.1L59.2,45.4L59.2,45.4z M7.5,43.2L7,43.2L7.2,41L7.7,41
	L7.5,43.2L7.5,43.2z M59.6,41l-0.5-0.1l0.2-2.2l0.5,0.1L59.6,41L59.6,41z M8,38.9l-0.5-0.1l0.2-2.2l0.5,0.1L8,38.9L8,38.9z
	 M60.1,36.6l-0.5-0.1l0.2-2.2l0.5,0.1L60.1,36.6L60.1,36.6z M8.5,34.5l-0.5-0.1l0.2-2.2l0.5,0.1L8.5,34.5L8.5,34.5z M59.9,32.3
	c-0.1-0.4-0.3-0.9-0.6-1.2l-0.2-0.3c-0.1-0.1-0.1-0.2-0.2-0.3l0.4-0.3c0.1,0.1,0.2,0.2,0.2,0.4l0.1,0.2c0.3,0.4,0.6,0.9,0.7,1.5
	L59.9,32.3L59.9,32.3z M8.9,30.2l-0.5-0.1l0.2-2.2L9.2,28L8.9,30.2L8.9,30.2z M57.6,28.8l-1.4-1.7l0.4-0.3l1.4,1.7L57.6,28.8
	L57.6,28.8z M9.9,26.1l-0.4-0.4c0.1-0.1,0.2-0.2,0.3-0.3l1.4-1.1l0.3,0.4l-1.4,1.1C10,25.9,9.9,26,9.9,26.1L9.9,26.1z M54.9,25.3
	l-1.4-1.7l0.4-0.3l1.4,1.7L54.9,25.3L54.9,25.3z M13.2,23.3l-0.3-0.4l1.7-1.4l0.3,0.4L13.2,23.3L13.2,23.3z M52.2,21.9l-1.4-1.7
	l0.4-0.3l1.4,1.7L52.2,21.9L52.2,21.9z M16.6,20.6l-0.3-0.4l1.7-1.4l0.3,0.4L16.6,20.6L16.6,20.6z M49.5,18.5l-1.4-1.7l0.4-0.3
	l1.4,1.7L49.5,18.5L49.5,18.5z M19.9,17.8l-0.3-0.4l1.7-1.4l0.3,0.4L19.9,17.8L19.9,17.8z M46.8,15l-1.4-1.7l0.4-0.3l1.4,1.7
	L46.8,15L46.8,15z M23.3,15L23,14.6l1.7-1.4l0.3,0.4L23.3,15L23.3,15z M26.7,12.2l-0.3-0.4l1.7-1.4l0.3,0.4L26.7,12.2L26.7,12.2z
	 M44.1,11.6l-1.4-1.7l0.4-0.3l1.4,1.7L44.1,11.6L44.1,11.6z M30.1,9.4L29.7,9l1.7-1.4L31.8,8L30.1,9.4L30.1,9.4z M41.4,8.2L40,6.4
	l0.4-0.3l1.4,1.7L41.4,8.2L41.4,8.2z M33.5,6.6l-0.3-0.4l1.7-1.4l0.3,0.4L33.5,6.6L33.5,6.6z M38.7,4.8c-0.3-0.3-0.8-0.5-1.2-0.6
	c-0.2,0-0.4,0-0.6,0l-0.1-0.5c0.2,0,0.5,0,0.7,0c0.6,0.1,1.1,0.3,1.6,0.7L38.7,4.8L38.7,4.8z"/>
<path class="st1" d="M18.3,92.9l-2-0.2c-0.7-0.1-0.9-0.5-0.9-1.2l1.7-14.9c0.1-1,0.5-1.5,1.2-1.4l1.7,0.2c0.4,0,0.7,0.2,0.8,0.6
	c0.1,0.3,0.2,1.4,0.3,3.2c0.3,7,2.4,10.7,6.2,11.2c2,0.2,3.7-0.5,5-2.1c1.3-1.6,2.1-3.7,2.4-6.1c0.3-2.6-0.1-5-1-7.3
	c-1-2.3-3-5.5-6.1-9.6c-2.4-3.1-4.1-5.6-5-7.2c-1-1.7-1.7-3.6-2.2-5.6c-0.5-2.1-0.6-4.3-0.3-6.6c0.5-4.4,2-7.8,4.5-10.4
	c2.5-2.6,5.3-3.7,8.5-3.3c1.4,0.2,3,0.7,4.5,1.7c0.7,0.5,1.2,0.7,1.4,0.7c0.3,0,0.6,0,0.9-0.2c0.3-0.2,0.7-0.2,1.2-0.1l1.5,0.2
	c0.8,0.1,1.1,0.5,1,1.2l-1.5,13.1c-0.1,0.7-0.4,1-1,0.9l-1.8-0.2c-0.5-0.1-0.8-0.2-0.9-0.5c-0.1-0.3-0.3-1.2-0.5-2.9
	c-0.6-5.8-2.3-8.9-5.1-9.2c-1.5-0.2-2.8,0.3-3.8,1.5c-1,1.2-1.7,2.6-1.8,4.2c-0.2,1.9,0.1,3.9,0.9,6.1c0.8,2.1,2.7,5,5.5,8.6
	c3.6,4.6,6,8.6,7.2,12c1.2,3.3,1.6,6.9,1.2,10.6c-0.6,5-2.3,8.9-5.3,11.8c-3,2.8-6.2,4.1-9.9,3.7c-1.6-0.2-3.4-0.8-5.5-1.9
	c-0.7-0.4-1.1-0.6-1.4-0.6c-0.3,0-0.6,0.1-1.1,0.3C18.7,92.9,18.4,92.9,18.3,92.9z"/>
<path class="st1" d="M42.6,34.3l-1.5-0.2c-0.5-0.1-0.9,0-1.2,0.1c-0.3,0.2-0.6,0.3-0.9,0.2c-0.3,0-0.7-0.3-1.4-0.7
	c-1.6-1-3.1-1.6-4.5-1.7c-3.2-0.4-6,0.8-8.5,3.3c-2.5,2.6-4,6-4.5,10.4c-0.3,2.4-0.2,4.6,0.3,6.6c0.5,2,1.2,3.9,2.2,5.6
	c0.3,0.5,0.6,1,1,1.6c2.3-2.3,4.7-4.5,7.3-6.5c-1.2-1.8-2.1-3.4-2.6-4.6c-0.8-2.1-1.2-4.2-0.9-6.1c0.2-1.7,0.8-3.1,1.8-4.2
	c1-1.2,2.3-1.7,3.8-1.5c2.8,0.3,4.5,3.4,5.1,9.2c0.1,0.9,0.2,1.6,0.3,2.1c1.4-0.8,2.8-1.5,4.2-2.2l1.1-10.2
	C43.7,34.8,43.3,34.4,42.6,34.3z"/>
<path class="st0" d="M110.4,102.7L65,109.3c-2.3,0.3-4.5-1.3-4.8-3.6l-10-69.4c-0.1-0.8,0-1.6,0.3-2.3c0.1-0.3,0.3-0.6,0.5-0.9
	L70.7,6.2c0.6-0.8,1.5-1.3,2.5-1.5c1-0.1,2,0.1,2.8,0.7l25.8,19.7c0.2,0.1,0.4,0.3,0.5,0.5c0.9,0.7,1.5,1.7,1.7,2.8l10,69.4
	C114.3,100.3,112.7,102.4,110.4,102.7L110.4,102.7z"/>
<path class="st0" d="M104,36.3l-1.1-7.7c-0.1-0.9-0.6-1.7-1.4-2.2c-0.1-0.2-0.3-0.3-0.5-0.5L75.3,6.3c-1.2-0.9-2.9-0.6-3.7,0.5
	l-19.7,27c-0.1,0.2-0.3,0.4-0.3,0.6c-0.2,0.5-0.3,1.1-0.2,1.7l10,69.5c0.2,1.3,1.2,2.3,2.4,2.6C59.6,84,75.9,46.2,104,36.3z"/>
<path class="st1" d="M64.4,108.2c-0.8,0-1.6-0.3-2.2-0.9l0.4-0.4c0.5,0.5,1.1,0.7,1.8,0.7V108.2L64.4,108.2z M65,108.2l-0.1-0.5
	l2.2-0.3l0.1,0.5L65,108.2L65,108.2z M69.3,107.5l-0.1-0.5l2.2-0.3l0.1,0.5L69.3,107.5L69.3,107.5z M73.7,106.9l-0.1-0.5l2.2-0.3
	l0.1,0.5L73.7,106.9L73.7,106.9z M78,106.3l-0.1-0.5l2.2-0.3l0.1,0.5L78,106.3L78,106.3z M82.3,105.7l-0.1-0.5l2.2-0.3l0.1,0.5
	L82.3,105.7L82.3,105.7z M61.2,105.2l-0.3-2.2l0.5-0.1l0.3,2.2L61.2,105.2L61.2,105.2z M86.7,105l-0.1-0.5l2.2-0.3l0.1,0.5L86.7,105
	L86.7,105z M91,104.4l-0.1-0.5l2.2-0.3l0.1,0.5L91,104.4L91,104.4z M95.3,103.8l-0.1-0.5l2.2-0.3l0.1,0.5L95.3,103.8L95.3,103.8z
	 M99.7,103.2l-0.1-0.5l2.2-0.3l0.1,0.5L99.7,103.2L99.7,103.2z M104,102.5l-0.1-0.5l2.2-0.3l0.1,0.5L104,102.5L104,102.5z
	 M108.4,101.9l-0.1-0.5l1.9-0.3c0.1,0,0.2,0,0.2,0l0.1,0.5c-0.1,0-0.2,0-0.3,0.1L108.4,101.9L108.4,101.9z M60.6,100.9l-0.3-2.2
	l0.5-0.1l0.3,2.2L60.6,100.9L60.6,100.9z M112.4,100.2l-0.5-0.3c0.3-0.4,0.4-0.9,0.4-1.4c0-0.1,0-0.2,0-0.4l0-0.2l0.5-0.1l0,0.2
	c0,0.1,0,0.3,0,0.5C112.9,99.1,112.8,99.7,112.4,100.2L112.4,100.2z M60,96.6l-0.3-2.2l0.5-0.1l0.3,2.2L60,96.6L60,96.6z M112,95.8
	l-0.3-2.2l0.5-0.1l0.3,2.2L112,95.8L112,95.8z M59.4,92.2l-0.3-2.2l0.5-0.1l0.3,2.2L59.4,92.2L59.4,92.2z M111.4,91.5l-0.3-2.2
	l0.5-0.1l0.3,2.2L111.4,91.5L111.4,91.5z M58.7,87.9l-0.3-2.2l0.5-0.1l0.3,2.2L58.7,87.9L58.7,87.9z M110.8,87.2l-0.3-2.2l0.5-0.1
	l0.3,2.2L110.8,87.2L110.8,87.2z M58.1,83.5l-0.3-2.2l0.5-0.1l0.3,2.2L58.1,83.5L58.1,83.5z M110.1,82.8l-0.3-2.2l0.5-0.1l0.3,2.2
	L110.1,82.8L110.1,82.8z M57.5,79.2L57.2,77l0.5-0.1l0.3,2.2L57.5,79.2L57.5,79.2z M109.5,78.5l-0.3-2.2l0.5-0.1l0.3,2.2L109.5,78.5
	L109.5,78.5z M56.9,74.9l-0.3-2.2l0.5-0.1l0.3,2.2L56.9,74.9L56.9,74.9z M108.9,74.1l-0.3-2.2l0.5-0.1l0.3,2.2L108.9,74.1
	L108.9,74.1z M56.2,70.5l-0.3-2.2l0.5-0.1l0.3,2.2L56.2,70.5L56.2,70.5z M108.3,69.8l-0.3-2.2l0.5-0.1l0.3,2.2L108.3,69.8
	L108.3,69.8z M55.6,66.2L55.3,64l0.5-0.1l0.3,2.2L55.6,66.2L55.6,66.2z M107.6,65.5l-0.3-2.2l0.5-0.1l0.3,2.2L107.6,65.5L107.6,65.5
	z M55,61.9l-0.3-2.2l0.5-0.1l0.3,2.2L55,61.9L55,61.9z M107,61.1l-0.3-2.2l0.5-0.1l0.3,2.2L107,61.1L107,61.1z M54.4,57.5l-0.3-2.2
	l0.5-0.1l0.3,2.2L54.4,57.5L54.4,57.5z M106.4,56.8l-0.3-2.2l0.5-0.1l0.3,2.2L106.4,56.8L106.4,56.8z M53.8,53.2L53.4,51L54,51
	l0.3,2.2L53.8,53.2L53.8,53.2z M105.8,52.5l-0.3-2.2l0.5-0.1l0.3,2.2L105.8,52.5L105.8,52.5z M53.1,48.9l-0.3-2.2l0.5-0.1l0.3,2.2
	L53.1,48.9L53.1,48.9z M105.2,48.1l-0.3-2.2l0.5-0.1l0.3,2.2L105.2,48.1L105.2,48.1z M52.5,44.5l-0.3-2.2l0.5-0.1l0.3,2.2L52.5,44.5
	L52.5,44.5z M104.5,43.8l-0.3-2.2l0.5-0.1l0.3,2.2L104.5,43.8L104.5,43.8z M51.9,40.2L51.6,38l0.5-0.1l0.3,2.2L51.9,40.2L51.9,40.2z
	 M103.9,39.5l-0.3-2.2l0.5-0.1l0.3,2.2L103.9,39.5L103.9,39.5z M51.3,35.8l0-0.1c0-0.4,0.1-0.8,0.3-1.2c0.1-0.3,0.2-0.5,0.3-0.6
	l0.2-0.2l0.4,0.3l-0.2,0.2c-0.1,0.1-0.2,0.3-0.3,0.5c-0.1,0.3-0.2,0.7-0.2,1l0,0.1L51.3,35.8L51.3,35.8z M103.3,35.1L103,33l0.5-0.1
	l0.3,2.2L103.3,35.1L103.3,35.1z M53.7,32.2l-0.4-0.3l1.3-1.8l0.4,0.3L53.7,32.2L53.7,32.2z M102.7,30.8l-0.3-2.2l0.5-0.1l0.3,2.2
	L102.7,30.8L102.7,30.8z M56.3,28.6l-0.4-0.3l1.3-1.8l0.4,0.3L56.3,28.6L56.3,28.6z M101.3,27l-0.2-0.2c-0.1-0.1-0.2-0.2-0.3-0.3
	l-1.2-0.9l0.3-0.4l1.2,0.9c0.1,0.1,0.3,0.2,0.4,0.4l0.2,0.1L101.3,27L101.3,27z M58.9,25.1l-0.4-0.3l1.3-1.8l0.4,0.3L58.9,25.1
	L58.9,25.1z M97.9,24.3L96.1,23l0.3-0.4l1.7,1.3L97.9,24.3L97.9,24.3z M94.4,21.6l-1.7-1.3l0.3-0.4l1.7,1.3L94.4,21.6L94.4,21.6z
	 M61.5,21.6l-0.4-0.3l1.3-1.8l0.4,0.3L61.5,21.6L61.5,21.6z M90.9,19l-1.7-1.3l0.3-0.4l1.7,1.3L90.9,19L90.9,19z M64.1,18l-0.4-0.3
	l1.3-1.8l0.4,0.3L64.1,18L64.1,18z M87.4,16.3L85.7,15l0.3-0.4l1.7,1.3L87.4,16.3L87.4,16.3z M66.7,14.5l-0.4-0.3l1.3-1.8l0.4,0.3
	L66.7,14.5L66.7,14.5z M83.9,13.6l-1.7-1.3l0.3-0.4l1.7,1.3L83.9,13.6L83.9,13.6z M80.5,11l-1.7-1.3l0.3-0.4l1.7,1.3L80.5,11
	L80.5,11z M69.3,11l-0.4-0.3l1.3-1.8l0.4,0.3L69.3,11L69.3,11z M77,8.3L75.2,7l0.3-0.4l1.7,1.3L77,8.3L77,8.3z M71.9,7.4l-0.4-0.3
	l0.2-0.2c0.4-0.6,1-0.9,1.7-1l0.1,0.5c-0.6,0.1-1.1,0.4-1.4,0.8L71.9,7.4L71.9,7.4z"/>
<path class="st1" d="M73.9,43.1l-0.7-2.6c-0.2-0.8-0.4-1.3-0.4-1.4c0-0.3,0.1-0.5,0.5-0.8l6.2-4c0.1-0.1,0.2-0.1,0.3-0.1
	c0.4-0.1,0.6,0.1,0.8,0.6l18.1,51.8c0.3,0.9,0.6,1.6,1,2c0.3,0.4,0.9,0.8,1.8,1.1c0.7,0.3,1,0.7,1.1,1.1l0.2,1.7
	c0.1,0.6-0.1,1-0.6,1l-13.1,1.8c-0.7,0.1-1.1-0.2-1.2-0.8l-0.2-1.7c-0.1-0.6,0.3-1.2,1-1.7c1-0.7,1.4-1.5,1.2-2.5
	c0-0.3-0.1-0.6-0.2-0.9l-2.8-8l-10.3,1.4l-0.5,8.1c0,0.4,0,0.6,0,0.8c0.1,0.8,0.8,1.6,2.1,2.3c0.8,0.5,1.3,1,1.4,1.5l0.2,1.7
	c0.1,0.6-0.2,1-1,1.1L70.6,98c-0.9,0.1-1.4-0.1-1.5-0.8l-0.3-2c-0.1-0.6,0.1-1,0.7-1.5c1-0.8,1.5-2,1.7-3.6L73.9,43.1z M78.4,55.4
	l-1.3,20.7l8.1-1.1L78.4,55.4z"/>
<path class="st1" d="M79.8,34.2c-0.1,0-0.2,0.1-0.3,0.1l-6.2,4c-0.4,0.2-0.5,0.5-0.5,0.8c0,0.1,0.1,0.6,0.4,1.4l0.7,2.6l-1.3,22.1
	c1.7-3.1,3.6-6.1,5.7-8.9l0.1-1l0.2,0.6c2.1-2.8,4.3-5.4,6.8-7.7l-4.7-13.5C80.5,34.3,80.2,34.1,79.8,34.2z"/>
<path class="st0" d="M136.6,104.9l-45-9.3c-2.3-0.5-3.8-2.7-3.3-5l14.3-68.7c0.2-0.8,0.5-1.5,1.1-2c0.2-0.2,0.5-0.5,0.7-0.6
	l27.7-18.6c0.9-0.6,1.9-0.8,2.8-0.5c1,0.2,1.8,0.8,2.4,1.6l17.5,27.4c0.1,0.2,0.2,0.4,0.3,0.7c0.6,0.9,0.9,2.1,0.6,3.2l-14.3,68.7
	C141.1,103.9,138.8,105.4,136.6,104.9L136.6,104.9z"/>
<path class="st0" d="M153.2,40.3l1.6-7.6c0.2-0.9,0-1.8-0.5-2.5c-0.1-0.2-0.2-0.4-0.3-0.6L136.4,2.3c-0.8-1.2-2.5-1.6-3.7-0.8
	L105,20.1c-0.2,0.1-0.4,0.3-0.5,0.5c-0.4,0.4-0.7,0.9-0.8,1.5L89.4,90.8c-0.3,1.3,0.3,2.6,1.4,3.3C95.1,69.9,123.4,40,153.2,40.3z"
	/>
<path class="st1" d="M137.4,103.9c-0.2,0-0.4,0-0.6-0.1l-1.6-0.3l0.1-0.5l1.6,0.3c0.2,0,0.3,0.1,0.5,0.1V103.9L137.4,103.9z
	 M138.1,103.8l-0.1-0.5c0.6-0.1,1.2-0.5,1.6-1.1l0.5,0.3C139.6,103.2,138.9,103.6,138.1,103.8L138.1,103.8z M133.1,103.1l-2.1-0.4
	l0.1-0.5l2.1,0.4L133.1,103.1L133.1,103.1z M128.8,102.2l-2.1-0.4l0.1-0.5l2.1,0.4L128.8,102.2L128.8,102.2z M124.5,101.3l-2.1-0.4
	l0.1-0.5l2.1,0.4L124.5,101.3L124.5,101.3z M120.2,100.4l-2.1-0.4l0.1-0.5l2.1,0.4L120.2,100.4L120.2,100.4z M140.7,100.3l-0.5-0.1
	l0.4-2.1l0.5,0.1L140.7,100.3L140.7,100.3z M115.9,99.5l-2.1-0.4l0.1-0.5L116,99L115.9,99.5L115.9,99.5z M111.6,98.6l-2.1-0.4
	l0.1-0.5l2.1,0.4L111.6,98.6L111.6,98.6z M107.3,97.7l-2.1-0.4l0.1-0.5l2.1,0.4L107.3,97.7L107.3,97.7z M103,96.8l-2.1-0.4l0.1-0.5
	l2.1,0.4L103,96.8L103,96.8z M141.6,96l-0.5-0.1l0.4-2.1l0.5,0.1L141.6,96L141.6,96z M98.7,95.9l-2.1-0.4l0.1-0.5l2.1,0.4L98.7,95.9
	L98.7,95.9z M94.5,95l-2.1-0.4l0.1-0.5l2.1,0.4L94.5,95L94.5,95z M90.2,93.6c-0.6-0.6-0.9-1.4-0.9-2.2l0.5,0c0,0.7,0.3,1.3,0.7,1.8
	L90.2,93.6L90.2,93.6z M142.5,91.7l-0.5-0.1l0.4-2.1l0.5,0.1L142.5,91.7L142.5,91.7z M90.3,89.4l-0.5-0.1l0.4-2.1l0.5,0.1L90.3,89.4
	L90.3,89.4z M143.4,87.5l-0.5-0.1l0.4-2.1l0.5,0.1L143.4,87.5L143.4,87.5z M91.2,85.1L90.6,85l0.4-2.1l0.5,0.1L91.2,85.1L91.2,85.1z
	 M144.3,83.2l-0.5-0.1l0.4-2.1l0.5,0.1L144.3,83.2L144.3,83.2z M92,80.8l-0.5-0.1l0.4-2.1l0.5,0.1L92,80.8L92,80.8z M145.2,78.9
	l-0.5-0.1l0.4-2.1l0.5,0.1L145.2,78.9L145.2,78.9z M92.9,76.5l-0.5-0.1l0.4-2.1l0.5,0.1L92.9,76.5L92.9,76.5z M146,74.6l-0.5-0.1
	l0.4-2.1l0.5,0.1L146,74.6L146,74.6z M93.8,72.2l-0.5-0.1l0.4-2.1l0.5,0.1L93.8,72.2L93.8,72.2z M146.9,70.3l-0.5-0.1l0.4-2.1
	l0.5,0.1L146.9,70.3L146.9,70.3z M94.7,67.9l-0.5-0.1l0.4-2.1l0.5,0.1L94.7,67.9L94.7,67.9z M147.8,66l-0.5-0.1l0.4-2.1l0.5,0.1
	L147.8,66L147.8,66z M95.6,63.6l-0.5-0.1l0.4-2.1l0.5,0.1L95.6,63.6L95.6,63.6z M148.7,61.7l-0.5-0.1l0.4-2.1l0.5,0.1L148.7,61.7
	L148.7,61.7z M96.5,59.3L96,59.2l0.4-2.1l0.5,0.1L96.5,59.3L96.5,59.3z M149.6,57.4l-0.5-0.1l0.4-2.1l0.5,0.1L149.6,57.4L149.6,57.4
	z M97.4,55.1l-0.5-0.1l0.4-2.1l0.5,0.1L97.4,55.1L97.4,55.1z M150.5,53.1L150,53l0.4-2.1L151,51L150.5,53.1L150.5,53.1z M98.3,50.8
	l-0.5-0.1l0.4-2.1l0.5,0.1L98.3,50.8L98.3,50.8z M151.4,48.9l-0.5-0.1l0.4-2.1l0.5,0.1L151.4,48.9L151.4,48.9z M99.2,46.5l-0.5-0.1
	l0.4-2.1l0.5,0.1L99.2,46.5L99.2,46.5z M152.3,44.6l-0.5-0.1l0.4-2.1l0.5,0.1L152.3,44.6L152.3,44.6z M100.1,42.2l-0.5-0.1l0.4-2.1
	l0.5,0.1L100.1,42.2L100.1,42.2z M153.2,40.3l-0.5-0.1l0.4-2.1l0.5,0.1L153.2,40.3L153.2,40.3z M101,37.9l-0.5-0.1l0.4-2.1l0.5,0.1
	L101,37.9L101,37.9z M154.1,36l-0.5-0.1l0.4-2.1l0.5,0.1L154.1,36L154.1,36z M101.9,33.6l-0.5-0.1l0.4-2.1l0.5,0.1L101.9,33.6
	L101.9,33.6z M154.2,31.7c-0.1-0.4-0.2-0.7-0.4-1l-0.2-0.3c0-0.1-0.1-0.2-0.2-0.4l-0.1-0.2l0.5-0.3l0.1,0.2c0.1,0.2,0.2,0.3,0.2,0.5
	l0.1,0.2c0.2,0.4,0.4,0.8,0.5,1.2L154.2,31.7L154.2,31.7z M102.8,29.3l-0.5-0.1l0.4-2.1l0.5,0.1L102.8,29.3L102.8,29.3z M152.2,28
	l-1.2-1.8l0.5-0.3l1.2,1.8L152.2,28L152.2,28z M103.7,25l-0.5-0.1l0.4-2.1l0.5,0.1L103.7,25L103.7,25z M149.8,24.3l-1.2-1.8l0.5-0.3
	l1.2,1.8L149.8,24.3L149.8,24.3z M104.9,21l-0.4-0.3l0,0c0.2-0.2,0.4-0.4,0.5-0.5l1.3-0.8l0.3,0.5l-1.3,0.8
	C105.2,20.7,105,20.8,104.9,21L104.9,21z M147.5,20.6l-1.2-1.8l0.5-0.3l1.2,1.8L147.5,20.6L147.5,20.6z M108.4,18.6l-0.3-0.5
	l1.8-1.2l0.3,0.5L108.4,18.6L108.4,18.6z M145.1,16.9l-1.2-1.8l0.5-0.3l1.2,1.8L145.1,16.9L145.1,16.9z M112,16.1l-0.3-0.5l1.8-1.2
	l0.3,0.5L112,16.1L112,16.1z M115.7,13.7l-0.3-0.5l1.8-1.2l0.3,0.5L115.7,13.7L115.7,13.7z M142.7,13.2l-1.2-1.8l0.5-0.3l1.2,1.8
	L142.7,13.2L142.7,13.2z M119.3,11.2l-0.3-0.5l1.8-1.2l0.3,0.5L119.3,11.2L119.3,11.2z M140.4,9.5l-1.2-1.8l0.5-0.3l1.2,1.8
	L140.4,9.5L140.4,9.5z M122.9,8.8l-0.3-0.5l1.8-1.2l0.3,0.5L122.9,8.8L122.9,8.8z M126.6,6.4l-0.3-0.5l1.8-1.2l0.3,0.5L126.6,6.4
	L126.6,6.4z M138,5.8L136.8,4l0.5-0.3l1.2,1.8L138,5.8L138,5.8z M130.2,3.9l-0.3-0.5l1.8-1.2l0.3,0.5L130.2,3.9L130.2,3.9z
	 M135.6,2.2c-0.3-0.3-0.6-0.4-1-0.5c-0.3-0.1-0.5-0.1-0.8,0l-0.1-0.5c0.3-0.1,0.7-0.1,1,0c0.5,0.1,0.9,0.3,1.3,0.7L135.6,2.2
	L135.6,2.2z"/>
<path class="st1" d="M107.4,80.7l9.7-46c0.3-1.3,0-2.4-0.8-3.3c-0.6-0.6-0.8-1.2-0.7-1.8L116,28c0.1-0.6,0.5-0.8,1.2-0.7l12.1,2.6
	c0.6,0.1,0.8,0.5,0.7,1l-0.4,1.8c-0.1,0.6-0.6,1.1-1.3,1.4c-1.1,0.5-1.8,1.4-2.1,2.7l-10.3,48.6l3.3,0.7c1.9,0.4,3.6,0.1,4.9-0.8
	c1.3-1,2.6-2.9,3.7-5.6c0.4-1.1,0.7-1.7,0.9-1.8c0.1-0.1,0.4-0.2,0.7-0.1l1.8,0.4c0.7,0.1,1,0.5,0.9,1.1l-2.9,13.9l-24.7-5.2
	c-0.9-0.2-1.2-0.7-1-1.4l0.3-1.5c0.1-0.6,0.6-1,1.5-1.3C106.3,83,107.1,82.1,107.4,80.7z"/>
<path class="st1" d="M128.2,34c0.8-0.3,1.2-0.8,1.3-1.4l0.4-1.8c0.1-0.5-0.1-0.9-0.7-1l-12.1-2.6c-0.7-0.1-1.1,0.1-1.2,0.7l-0.4,1.7
	c-0.1,0.6,0.1,1.2,0.7,1.8c0.8,0.9,1.1,2,0.8,3.3l-5,23.5c3.5-3.2,7.3-6.2,11.3-8.7l2.7-12.9C126.4,35.4,127.1,34.5,128.2,34z"/>
<path class="st0" d="M190.1,105.9l-45.9,0.2c-2.3,0-4.2-1.9-4.2-4.2l-0.2-70.2c0-0.8,0.2-1.5,0.6-2.2c0.2-0.3,0.4-0.6,0.6-0.8
	l23.3-23.9c0.7-0.7,1.7-1.1,2.7-1.1c1,0,2,0.4,2.7,1.1l22.8,23.1c0.2,0.2,0.3,0.4,0.5,0.6c0.8,0.8,1.3,1.9,1.3,3l0.2,70.2
	C194.3,104,192.4,105.9,190.1,105.9L190.1,105.9z"/>
<path class="st0" d="M193,39.2l0-7.7c0-0.9-0.4-1.8-1.1-2.3c-0.1-0.2-0.2-0.4-0.4-0.5L168.7,5.5c-1-1-2.7-1-3.8,0l-23.3,24
	c-0.2,0.2-0.3,0.4-0.4,0.6c-0.3,0.5-0.5,1-0.5,1.6l0.2,70.2c0,1.3,0.8,2.5,2,2.9C142.3,80.2,163.7,45.1,193,39.2z"/>
<path class="st1" d="M144.1,104.9c-0.8,0-1.6-0.3-2.2-0.9l0.4-0.4c0.5,0.5,1.1,0.7,1.8,0.7V104.9L144.1,104.9z M144.7,104.9l0-0.5
	l2.2,0l0,0.5L144.7,104.9L144.7,104.9z M149.1,104.9l0-0.5l2.2,0l0,0.5L149.1,104.9L149.1,104.9z M153.5,104.9l0-0.5l2.2,0l0,0.5
	L153.5,104.9L153.5,104.9z M157.9,104.9l0-0.5l2.2,0l0,0.5L157.9,104.9L157.9,104.9z M162.2,104.9l0-0.5l2.2,0l0,0.5L162.2,104.9
	L162.2,104.9z M166.6,104.9l0-0.5l2.2,0l0,0.5L166.6,104.9L166.6,104.9z M171,104.8l0-0.5l2.2,0l0,0.5L171,104.8L171,104.8z
	 M175.4,104.8l0-0.5l2.2,0l0,0.5L175.4,104.8L175.4,104.8z M179.8,104.8l0-0.5l2.2,0l0,0.5L179.8,104.8L179.8,104.8z M184.1,104.8
	l0-0.5l2.2,0l0,0.5L184.1,104.8L184.1,104.8z M188.5,104.8l0-0.5l1.5,0c0.2,0,0.4,0,0.6-0.1l0.1,0.5c-0.2,0.1-0.5,0.1-0.7,0.1
	L188.5,104.8L188.5,104.8z M192.7,103.3l-0.5-0.3c0.3-0.4,0.4-0.9,0.4-1.4l0-0.6l0.5,0l0,0.6C193.1,102.2,193,102.8,192.7,103.3
	L192.7,103.3z M141,101.9l0-2.2l0.5,0l0,2.1L141,101.9L141,101.9z M192.6,98.8l0-2.2l0.5,0l0,2.2L192.6,98.8L192.6,98.8z M141,97.5
	l0-2.2l0.5,0l0,2.2L141,97.5L141,97.5z M192.6,94.5l0-2.2l0.5,0l0,2.2L192.6,94.5L192.6,94.5z M141,93.1l0-2.2l0.5,0l0,2.2L141,93.1
	L141,93.1z M192.5,90.1l0-2.2l0.5,0l0,2.2L192.5,90.1L192.5,90.1z M140.9,88.8l0-2.2l0.5,0l0,2.2L140.9,88.8L140.9,88.8z
	 M192.5,85.7l0-2.2l0.5,0l0,2.2L192.5,85.7L192.5,85.7z M140.9,84.4l0-2.2l0.5,0l0,2.2L140.9,84.4L140.9,84.4z M192.5,81.3l0-2.2
	l0.5,0l0,2.2L192.5,81.3L192.5,81.3z M140.9,80l0-2.2l0.5,0l0,2.2L140.9,80L140.9,80z M192.5,76.9l0-2.2l0.5,0l0,2.2L192.5,76.9
	L192.5,76.9z M140.9,75.6l0-2.2l0.5,0l0,2.2L140.9,75.6L140.9,75.6z M192.5,72.6l0-2.2l0.5,0l0,2.2L192.5,72.6L192.5,72.6z
	 M140.9,71.2l0-2.2l0.5,0l0,2.2L140.9,71.2L140.9,71.2z M192.5,68.2l0-2.2l0.5,0l0,2.2L192.5,68.2L192.5,68.2z M140.9,66.9l0-2.2
	l0.5,0l0,2.2L140.9,66.9L140.9,66.9z M192.5,63.8l0-2.2l0.5,0l0,2.2L192.5,63.8L192.5,63.8z M140.9,62.5l0-2.2l0.5,0l0,2.2
	L140.9,62.5L140.9,62.5z M192.4,59.4l0-2.2l0.5,0l0,2.2L192.4,59.4L192.4,59.4z M140.8,58.1l0-2.2l0.5,0l0,2.2L140.8,58.1
	L140.8,58.1z M192.4,55l0-2.2l0.5,0l0,2.2L192.4,55L192.4,55z M140.8,53.7l0-2.2l0.5,0l0,2.2L140.8,53.7L140.8,53.7z M192.4,50.7
	l0-2.2l0.5,0l0,2.2L192.4,50.7L192.4,50.7z M140.8,49.3l0-2.2l0.5,0l0,2.2L140.8,49.3L140.8,49.3z M192.4,46.3l0-2.2l0.5,0l0,2.2
	L192.4,46.3L192.4,46.3z M140.8,45l0-2.2l0.5,0l0,2.2L140.8,45L140.8,45z M192.4,41.9l0-2.2l0.5,0l0,2.2L192.4,41.9L192.4,41.9z
	 M140.8,40.6l0-2.2l0.5,0l0,2.2L140.8,40.6L140.8,40.6z M192.4,37.5l0-2.2l0.5,0l0,2.2L192.4,37.5L192.4,37.5z M140.8,36.2l0-2.2
	l0.5,0l0,2.2L140.8,36.2L140.8,36.2z M192.4,33.1l0-1.7c0-0.2,0-0.3,0-0.5l0.5-0.1c0,0.2,0.1,0.4,0.1,0.6l0,1.7L192.4,33.1
	L192.4,33.1z M140.8,31.8l0-0.1c0-0.6,0.2-1.1,0.4-1.6c0.1-0.2,0.2-0.3,0.3-0.5l0.4,0.4c-0.1,0.1-0.2,0.2-0.3,0.4
	c-0.2,0.4-0.4,0.9-0.4,1.3l0,0.1L140.8,31.8L140.8,31.8z M191.3,29.3c-0.1-0.1-0.1-0.2-0.2-0.2l-1.3-1.3l0.4-0.4l1.3,1.3
	c0.1,0.1,0.2,0.2,0.2,0.3L191.3,29.3L191.3,29.3z M143.4,28.4L143,28l1.5-1.6l0.4,0.4L143.4,28.4L143.4,28.4z M188.2,26.2l-1.5-1.6
	l0.4-0.4l1.5,1.6L188.2,26.2L188.2,26.2z M146.5,25.3l-0.4-0.4l1.5-1.6l0.4,0.4L146.5,25.3L146.5,25.3z M185.2,23l-1.5-1.6l0.4-0.4
	l1.5,1.6L185.2,23L185.2,23z M149.5,22.1l-0.4-0.4l1.5-1.6l0.4,0.4L149.5,22.1L149.5,22.1z M182.1,19.9l-1.5-1.6l0.4-0.4l1.5,1.6
	L182.1,19.9L182.1,19.9z M152.6,19l-0.4-0.4l1.5-1.6l0.4,0.4L152.6,19L152.6,19z M179,16.8l-1.5-1.6l0.4-0.4l1.5,1.6L179,16.8
	L179,16.8z M155.7,15.8l-0.4-0.4l1.5-1.6l0.4,0.4L155.7,15.8L155.7,15.8z M175.9,13.7l-1.5-1.6l0.4-0.4l1.5,1.6L175.9,13.7
	L175.9,13.7z M158.7,12.7l-0.4-0.4l1.5-1.6l0.4,0.4L158.7,12.7L158.7,12.7z M172.8,10.6L171.3,9l0.4-0.4l1.5,1.6L172.8,10.6
	L172.8,10.6z M161.8,9.6l-0.4-0.4l1.5-1.6l0.4,0.4L161.8,9.6L161.8,9.6z M169.8,7.4l-1.5-1.5l0.4-0.4l1.5,1.6L169.8,7.4L169.8,7.4z
	 M164.8,6.4L164.4,6l0.5-0.5c0.4-0.4,0.9-0.7,1.5-0.8l0.1,0.5c-0.4,0.1-0.8,0.3-1.2,0.6L164.8,6.4L164.8,6.4z"/>
<path class="st1" d="M181,95.7h-27.2c-0.6,0-1-0.3-1-1V93c0-0.6,0.4-1.2,1.3-1.8c0.8-0.6,1.2-1.6,1.2-2.9v-47c0-1.4-0.5-2.4-1.5-3.1
	c-0.7-0.5-1-1-1-1.6v-1.9c0-0.5,0.3-0.8,1-0.8h20.4c0.4,0,1.1,0,2.1-0.1c0.9-0.1,1.5-0.1,1.7-0.1c0.9,0,1.3,0.2,1.3,0.7v11.7
	c0,0.6-0.1,1-0.2,1.1c-0.1,0.1-0.5,0.2-1,0.2h-1.5c-0.6,0-1-0.4-1.1-1.1c-0.3-2.1-0.8-3.8-1.6-5.3c-0.8-1.5-2.3-2.2-4.5-2.2h-5v22.5
	h1.8c1.1,0,1.9-0.2,2.3-0.7c0.4-0.4,1-1.8,1.6-4.1c0.2-0.7,0.4-1.2,0.4-1.2c0.1-0.1,0.3-0.1,0.7-0.1h1.7c0.7,0,1,0.3,1,1v15
	c0,0.6-0.3,1-1,1h-1.8c-0.4,0-0.7-0.1-0.8-0.3c-0.2-0.2-0.4-0.8-0.6-1.8c-0.5-1.9-1-3-1.5-3.4c-0.6-0.4-1.3-0.6-2.3-0.6h-1.6v25.1
	h5.4c2,0,3.4-0.5,4.1-1.4c0.8-0.9,1.7-3.5,2.9-7.7c0.3-1,0.7-1.4,1.4-1.4h1.7c0.7,0,1,0.3,1,1V95.7z"/>
<path class="st1" d="M178.1,33.7c-0.2,0-0.8,0-1.7,0.1c-1,0.1-1.7,0.1-2.1,0.1h-20.4c-0.6,0-1,0.3-1,0.8v1.9c0,0.6,0.3,1.1,1,1.6
	c1,0.7,1.5,1.7,1.5,3.1V67c2.7-4.1,5.8-7.9,9.2-11.4V38.7h5c2.3,0,3.8,0.7,4.5,2.2c0.8,1.5,1.3,3.2,1.6,5.3c0,0.1,0,0.1,0,0.2
	c1.2-0.8,2.4-1.5,3.7-2.2v-9.8C179.4,33.9,178.9,33.7,178.1,33.7z"/>
<ellipse transform="matrix(0.1104 -0.9939 0.9939 0.1104 19.38 47.8416)" class="st1" cx="36.4" cy="13.1" rx="2.3" ry="2.3"/>
<ellipse transform="matrix(0.9903 -0.1388 0.1388 0.9903 -1.3966 10.5036)" class="st1" cx="74.6" cy="15.3" rx="2.3" ry="2.3"/>
<ellipse transform="matrix(0.2075 -0.9782 0.9782 0.2075 94.9478 138.1824)" class="st1" cx="132.8" cy="10.5" rx="2.3" ry="2.3"/>
<circle class="st1" cx="166.8" cy="14.3" r="2.3"/>
<g>
</g>
<g>
</g>
<g>
</g>
<g>
</g>
<g>
</g>
<g>
</g>
</svg>
