<?xml version="1.0" encoding="utf-8"?>
<!-- Generator: Adobe Illustrator 21.0.2, SVG Export Plug-In . SVG Version: 6.00 Build 0)  -->
<!DOCTYPE svg PUBLIC "-//W3C//DTD SVG 1.1//EN" "http://www.w3.org/Graphics/SVG/1.1/DTD/svg11.dtd">
<svg version="1.1" id="Layer_1" xmlns="http://www.w3.org/2000/svg" xmlns:xlink="http://www.w3.org/1999/xlink" x="0px" y="0px"
	 viewBox="0 0 162.4 82.9" style="enable-background:new 0 0 162.4 82.9;" xml:space="preserve">
<style type="text/css">
	.st0{fill:#DC143C;}
</style>
<g>
	<g>
		<path class="st0" d="M162.4,60.3v-8.1c0-7.6-6.1-13.7-13.7-13.7h-3l1.3,39h15.5v-8.9c-2.3,0-4.1-1.9-4.1-4.1
			C158.3,62.2,160.1,60.3,162.4,60.3z"/>
	</g>
	<path class="st0" d="M125.2,74.9c0-4.4,3.6-8,8-8c4.4,0,8,3.6,8,8c0,4.4-3.6,8-8,8C128.8,82.9,125.2,79.3,125.2,74.9z"/>
	<path class="st0" d="M32.3,74.9c0-4.4,3.6-8,8-8c4.4,0,8,3.6,8,8c0,4.4-3.6,8-8,8C35.9,82.9,32.3,79.3,32.3,74.9z"/>
	<g>
		<path class="st0" d="M133.8,0H13.7C6.1,0,0,6.1,0,13.7v63.2h8.6V35.7h13.7v41.2h5.5c-0.1-0.6-0.2-1.3-0.2-1.9
			c0-7,5.7-12.8,12.8-12.8c7,0,12.8,5.7,12.8,12.8c0,0.9-0.1,1.8-0.3,2.7h68c-0.2-0.9-0.3-1.7-0.3-2.7c0-7,5.7-12.8,12.8-12.8
			c7,0,12.7,5.7,12.7,12.8c0,0.9-0.1,1.8-0.3,2.7h1.8V13.7C147.5,6.1,141.4,0,133.8,0z M90.1,9.6c0-1.5,1.2-2.6,2.6-2.6h15.6
			c1.4,0,2.6,1.2,2.6,2.6v10.1c0,1.4-1.2,2.6-2.6,2.6L90,22.5L90.1,9.6z M62.8,9.6C62.8,8.1,64,7,65.4,7H81c1.4,0,2.6,1.2,2.6,2.6
			v10.1c0,1.4-1.2,2.6-2.6,2.6l-18.3,0.1L62.8,9.6z M35.5,9.6c0-1.5,1.2-2.6,2.6-2.6h15.6c1.4,0,2.6,1.2,2.6,2.6v10.1
			c0,1.4-1.2,2.6-2.6,2.6l-18.3,0.1L35.5,9.6z M8.2,9.6C8.2,8.1,9.4,7,10.8,7h15.6c1.4,0,2.6,1.2,2.6,2.6v10.1
			c0,1.4-1.2,2.6-2.6,2.6L8.2,22.5L8.2,9.6z M8,29.5v-2h129.4v2H8z M56.4,48.3c0,1.4-1.2,2.6-2.6,2.6L35.5,51l0.1-12.9
			c0-1.5,1.2-2.6,2.6-2.6h15.6c1.4,0,2.6,1.2,2.6,2.6V48.3z M83.6,48.3c0,1.4-1.2,2.6-2.6,2.6L62.7,51l0.1-12.9
			c0-1.5,1.2-2.6,2.6-2.6H81c1.4,0,2.6,1.2,2.6,2.6V48.3z M110.9,48.3c0,1.4-1.2,2.6-2.6,2.6L90,51l0.1-12.9c0-1.5,1.2-2.6,2.6-2.6
			h15.6c1.4,0,2.6,1.2,2.6,2.6V48.3z M138.2,48.3c0,1.4-1.2,2.6-2.6,2.6L117.3,51l0.1-12.9c0-1.5,1.2-2.6,2.6-2.6h15.6
			c1.4,0,2.6,1.2,2.6,2.6V48.3z M138.2,19.7c0,1.4-1.2,2.6-2.6,2.6l-18.3,0.1l0.1-12.9c0-1.5,1.2-2.6,2.6-2.6h15.6
			c1.4,0,2.6,1.2,2.6,2.6V19.7z"/>
	</g>
</g>
<g>
</g>
<g>
</g>
<g>
</g>
<g>
</g>
<g>
</g>
<g>
</g>
</svg>
