<?xml version="1.0" encoding="utf-8"?>
<!-- Generator: Adobe Illustrator 21.0.2, SVG Export Plug-In . SVG Version: 6.00 Build 0)  -->
<!DOCTYPE svg PUBLIC "-//W3C//DTD SVG 1.1//EN" "http://www.w3.org/Graphics/SVG/1.1/DTD/svg11.dtd">
<svg version="1.1" id="Layer_1" xmlns="http://www.w3.org/2000/svg" xmlns:xlink="http://www.w3.org/1999/xlink" x="0px" y="0px"
	 viewBox="0 0 328.6 285" style="enable-background:new 0 0 328.6 285;" xml:space="preserve">
<style type="text/css">
	.st0{fill:#DC143C;}
	.st1{fill:#FFFFFF;}
</style>
<g>
	<g>
		<path class="st0" d="M155.6,206.8c0-1.9-1.5-3.4-3.4-3.4l-72.3,0c-1.9,0-3.4,1.5-3.4,3.4l0,46.4l79.1,0L155.6,206.8z"/>
		<path class="st0" d="M149.3,187.6c0-1.6-1.3-2.9-2.9-2.9l-60.9,0c-1.6,0-2.9,1.3-2.9,2.9l0,20.5l66.7,0L149.3,187.6z"/>
		<polygon class="st0" points="84.9,174.1 77.6,182.5 154.4,182.6 147.5,174.1 		"/>
		<path class="st0" d="M116,142.8c-16.5,0-30,12.6-31.6,28.6l63.1,0C146,155.4,132.5,142.8,116,142.8z"/>
		<polygon class="st0" points="116.1,77.3 112.4,131.5 119.7,131.6 		"/>
		<rect x="108.7" y="129" class="st0" width="14.5" height="20.6"/>
		<g>
			<path class="st1" d="M92.7,201.8l-2.1,0c-0.9,0-1.6-0.7-1.6-1.6l0-10.6c0-0.9,0.7-1.6,1.6-1.6l2.1,0c0.9,0,1.6,0.7,1.6,1.6
				l0,10.6C94.4,201.1,93.6,201.8,92.7,201.8z"/>
			<path class="st1" d="M104.9,201.8l-2.1,0c-0.9,0-1.6-0.7-1.6-1.6l0-10.6c0-0.9,0.7-1.6,1.6-1.6l2.1,0c0.9,0,1.6,0.7,1.6,1.6
				l0,10.6C106.5,201.1,105.8,201.8,104.9,201.8z"/>
			<path class="st1" d="M117,201.8l-2.1,0c-0.9,0-1.6-0.7-1.6-1.6l0-10.6c0-0.9,0.7-1.6,1.6-1.6l2.1,0c0.9,0,1.6,0.7,1.6,1.6l0,10.6
				C118.7,201.1,117.9,201.8,117,201.8z"/>
			<path class="st1" d="M129.2,201.8l-2.1,0c-0.9,0-1.6-0.7-1.6-1.6l0-10.6c0-0.9,0.7-1.6,1.6-1.6l2.1,0c0.9,0,1.6,0.7,1.6,1.6
				l0,10.6C130.8,201.1,130.1,201.8,129.2,201.8z"/>
			<path class="st1" d="M141.3,201.8l-2.1,0c-0.9,0-1.6-0.7-1.6-1.6l0-10.6c0-0.9,0.7-1.6,1.6-1.6l2.1,0c0.9,0,1.6,0.7,1.6,1.6
				l0,10.6C143,201.1,142.2,201.8,141.3,201.8z"/>
		</g>
		<g>
			<rect x="83.5" y="209.8" class="st1" width="5.6" height="37.5"/>
			<rect x="95.4" y="209.8" class="st1" width="5.6" height="37.5"/>
			<rect x="107.3" y="209.8" class="st1" width="5.6" height="37.5"/>
			<rect x="119.1" y="209.8" class="st1" width="5.6" height="37.5"/>
			<rect x="131" y="209.8" class="st1" width="5.6" height="37.5"/>
			<rect x="142.9" y="209.8" class="st1" width="5.6" height="37.5"/>
		</g>
	</g>
	<g>
		<g>
			<path class="st0" d="M322.7,207.2c-3.8-3.3-7.8-6.1-11.7-8.5c-0.1,4.7-0.5,9.4-1.6,14C313.9,211.3,318.2,209.4,322.7,207.2z"/>
			<path class="st0" d="M324.6,211c-1.9-0.3-3.2-2.1-2.9-4.1c0.2-1.9,1.8-3.5,3.7-3.4c1.9,0.1,3.4,1.9,3.2,4.1
				C328.3,209.8,326.5,211.3,324.6,211z"/>
			<path class="st0" d="M319.1,223.5c-2.8-4-6.3-7.7-9.6-10.9c-1.1,4.6-2.5,9.1-4.5,13.3C309.7,225.6,314.2,224.7,319.1,223.5z"/>
			<path class="st0" d="M320.1,227.6c-1.8-0.7-2.7-2.8-2-4.6c0.7-1.8,2.5-3,4.4-2.5c1.8,0.5,3,2.7,2.2,4.7
				C323.9,227.2,321.9,228.3,320.1,227.6z"/>
			<path class="st0" d="M312,238.6c-1.9-4.5-4.4-8.8-7.1-12.7c-2,4.3-4.3,8.4-7.3,12C302.3,238.6,307.1,238.9,312,238.6z"/>
			<path class="st0" d="M312.2,242.9c-1.6-1.1-2-3.3-1-5c1-1.7,3.2-2.3,4.9-1.4c1.7,0.9,2.2,3.1,1,5
				C316,243.3,313.8,244,312.2,242.9z"/>
			<path class="st0" d="M301.8,251.9c-1-4.9-2.3-9.5-4.2-13.9c-2.8,3.8-6.1,7.1-9.7,10.2C292.3,249.7,297.1,251.2,301.8,251.9z"/>
			<path class="st0" d="M301.1,256.1c-1.3-1.4-1.2-3.6,0.1-5.1c1.3-1.5,3.6-1.6,5-0.4c1.5,1.2,1.5,3.6,0,5.2
				C304.8,257.4,302.4,257.4,301.1,256.1z"/>
			<path class="st0" d="M289.1,262.7c0-5.1-0.3-9.8-1.1-14.5c-3.6,3-7.5,5.7-11.6,7.9C280.3,258.6,284.5,260.7,289.1,262.7z"/>
			<path class="st0" d="M287.4,266.6c-1-1.6-0.4-3.8,1.2-4.8c1.6-1.2,3.8-0.9,5,0.6c1.2,1.5,0.7,3.8-1.1,5.1
				C290.7,268.6,288.4,268.2,287.4,266.6z"/>
			<path class="st0" d="M274.3,270.5c1.2-4.7,1.8-9.8,2-14.4c-4.2,2.1-8.5,4-13.1,5.2C266.6,264.7,270.2,267.6,274.3,270.5z"/>
			<path class="st0" d="M271.9,273.9c-0.6-1.8,0.4-3.8,2.2-4.5c1.9-0.6,3.9,0,4.7,1.7c0.8,1.7-0.1,4-2.2,4.7
				C274.6,276.6,272.5,275.7,271.9,273.9z"/>
			<path class="st0" d="M258.2,274.9c2.2-4.4,3.9-9.1,5.1-13.6c-4.5,1.2-9.2,2.1-13.9,2.2C251.9,267.6,254.9,271.3,258.2,274.9z"/>
			<path class="st0" d="M255.1,277.7c-0.2-1.9,1.2-3.7,3.1-4c1.9-0.3,3.8,1,4.2,2.8c0.4,1.9-1,3.7-3.1,4
				C257.2,280.9,255.3,279.7,255.1,277.7z"/>
			<path class="st0" d="M195.7,257.4c4.8-1.2,9.5-3,13.7-4.9c-3.8-2.8-7.5-5.7-10.7-9.2C197.2,247.9,196.4,252.4,195.7,257.4z"/>
			<path class="st0" d="M191.6,256.8c1.3-1.4,3.6-1.4,5-0.1c1.4,1.3,1.9,3.4,0.7,5c-1.1,1.5-3.6,1.8-5.2,0.3
				C190.5,260.5,190.2,258.2,191.6,256.8z"/>
			<path class="st0" d="M184.3,245.2c4.9-0.1,9.8-0.9,14.4-1.9c-3.2-3.4-6.2-7.1-8.5-11.2C187.8,236.2,185.9,240.6,184.3,245.2z"/>
			<path class="st0" d="M180.3,243.8c1.6-1.1,3.8-0.7,5,0.9c1.2,1.6,1,3.8-0.5,5.1c-1.5,1.3-3.8,0.9-5.1-0.9
				C178.5,247.1,178.7,244.9,180.3,243.8z"/>
			<path class="st0" d="M175.7,230.9c4.9,0.9,9.7,1.3,14.5,1.2c-2.5-4-4.4-8.3-5.9-12.7C181.3,222.8,178.1,226.7,175.7,230.9z"/>
			<path class="st0" d="M172.1,228.6c1.7-0.7,3.8,0.2,4.7,2c0.9,1.8,0.2,3.9-1.5,4.8c-1.7,0.9-3.8,0-4.8-1.9
				C169.5,231.5,170.3,229.3,172.1,228.6z"/>
			<path class="st0" d="M170.4,215c4.8,1.9,9.1,3.4,13.9,4.3c-1.5-4.4-2.4-9.1-3-13.7C177.6,208.3,173.8,211.5,170.4,215z"/>
			<path class="st0" d="M167.4,212c1.9-0.3,3.6,1,4.1,2.9c0.5,1.9-0.6,3.9-2.5,4.4c-1.8,0.5-3.8-0.8-4.3-2.9
				C164.2,214.3,165.6,212.3,167.4,212z"/>
			<path class="st0" d="M168.6,198.4c4.2,2.9,8.4,5.3,12.6,7.2c-0.4-4.7-0.4-9.4,0-14.1C177,193.4,172.8,195.7,168.6,198.4z"/>
			<path class="st0" d="M166.4,194.9c1.9,0.1,3.4,1.8,3.3,3.7c0.1,2-1.4,3.6-3.3,3.7c-1.9,0.1-3.6-1.6-3.7-3.7
				C162.8,196.4,164.5,194.7,166.4,194.9z"/>
			<path class="st0" d="M170.5,181.8c3.3,3.7,7.1,7,10.8,9.8c0.6-4.7,1.5-9.3,3.1-13.7C179.6,178.7,175.2,180.1,170.5,181.8z"/>
			<path class="st0" d="M169,177.8c1.8,0.5,2.9,2.5,2.5,4.4c-0.5,1.9-2.1,3.3-4.1,2.9c-1.8-0.3-3.3-2.3-2.7-4.4
				C165.3,178.6,167.2,177.3,169,177.8z"/>
			<path class="st0" d="M175.9,166c2.3,4.3,5.4,8.3,8.4,11.9c1.5-4.4,3.4-8.8,5.9-12.7C185.5,164.9,180.8,165.2,175.9,166z"/>
			<path class="st0" d="M175.3,161.8c1.7,0.9,2.4,3.1,1.5,4.8c-0.9,1.7-2.9,2.7-4.7,2c-1.8-0.7-2.6-2.9-1.6-4.9
				C171.4,161.7,173.6,160.9,175.3,161.8z"/>
			<path class="st0" d="M184.6,151.7c1.5,4.7,3.3,9.2,5.7,13.4c2.3-4.1,5.3-7.8,8.5-11.2C194.3,152.8,189.4,151.9,184.6,151.7z"/>
			<path class="st0" d="M184.8,147.5c1.4,1.2,1.6,3.5,0.5,5.1c-1.2,1.6-3.4,2-5,0.9c-1.6-1.1-1.8-3.4-0.5-5.1
				C181.1,146.6,183.3,146.2,184.8,147.5z"/>
			<path class="st0" d="M196.1,139.6c0.6,5.1,1.2,9.6,2.7,14.3c3.2-3.5,6.9-6.4,10.7-9.2C205.3,142.8,200.8,140.9,196.1,139.6z"/>
			<path class="st0" d="M197.3,135.6c1.2,1.6,0.8,3.6-0.7,5c-1.5,1.3-3.7,1.3-5-0.1c-1.3-1.4-1.1-3.7,0.5-5.2
				C193.7,133.8,196.2,134.1,197.3,135.6z"/>
			<path class="st0" d="M209.9,130.2c-0.6,4.9-0.7,9.9-0.5,14.5c3.9-2.5,8.1-4.8,12.4-6.5C218.2,135.2,214.3,132.7,209.9,130.2z"/>
			<path class="st0" d="M212,126.6c0.8,1.7,0,3.8-1.7,4.7c-1.7,0.9-3.9,0.5-4.9-1.2c-1-1.6-0.3-3.9,1.6-4.9
				C208.9,124.2,211.2,124.8,212,126.6z"/>
			<path class="st0" d="M225.5,124.1c-1.7,4.5-2.8,9.5-3.6,14.1c4.4-1.7,8.9-3.1,13.5-3.7C232.5,130.7,229.2,127.4,225.5,124.1z"/>
			<path class="st0" d="M228.3,120.9c0.4,1.9-0.8,3.8-2.7,4.3c-1.9,0.4-3.9-0.5-4.5-2.3c-0.6-1.8,0.5-3.9,2.7-4.4
				C225.8,118,227.9,119.1,228.3,120.9z"/>
			<path class="st0" d="M241.9,121.5c-2.7,4.1-4.8,8.5-6.5,13c4.6-0.8,9.4-1.1,14.1-0.7C247.4,129.5,244.9,125.4,241.9,121.5z"/>
			<path class="st0" d="M245.4,118.9c0,1.9-1.6,3.6-3.6,3.6c-2,0.1-3.7-1.4-3.9-3.3c-0.2-1.9,1.4-3.6,3.6-3.7
				C243.6,115.6,245.4,117,245.4,118.9z"/>
			<path class="st0" d="M258.6,122.4c-3.5,3.6-6.5,7.2-9.2,11.3c4.7,0.1,9.4,1,13.9,2.2C262.2,131.5,260.7,126.8,258.6,122.4z"/>
			<path class="st0" d="M262.5,120.7c-0.4,1.8-2.3,3.1-4.2,2.8c-1.9-0.3-3.4-2.1-3.1-4c0.2-1.9,2.1-3.2,4.3-2.9
				C261.5,117,262.9,118.8,262.5,120.7z"/>
			<path class="st0" d="M274.7,126.9c-4.2,2.9-7.9,5.6-11.4,9.1c4.5,1.2,8.9,3.1,13.1,5.2C276.2,136.6,275.8,131.6,274.7,126.9z"/>
			<path class="st0" d="M278.9,126.1c-0.8,1.8-2.9,2.4-4.7,1.7c-1.8-0.7-2.8-2.7-2.2-4.5c0.6-1.8,2.8-2.7,4.8-1.9
				C278.8,122.1,279.7,124.4,278.9,126.1z"/>
			<path class="st0" d="M289.5,134.8c-4.7,1.8-9.1,3.9-13.1,6.4c4.1,2.2,8,4.9,11.6,7.9C288.9,144.4,289.3,139.8,289.5,134.8z"/>
			<path class="st0" d="M293.7,134.9c-1.2,1.5-3.4,1.8-5,0.6c-1.7-1.1-2.2-3.2-1.2-4.8c1-1.6,3.3-2.1,5.1-0.9
				C294.4,131.1,294.8,133.4,293.7,134.9z"/>
			<path class="st0" d="M302.1,145.7c-4.8,0.6-9.8,2-14.1,3.4c3.5,3.1,6.9,6.4,9.6,10.2C299.6,154.9,301,150.5,302.1,145.7z"/>
			<path class="st0" d="M306.3,146.6c-1.5,1.2-3.7,1.1-5-0.4c-1.3-1.5-1.4-3.7-0.1-5.1c1.3-1.4,3.7-1.4,5.1,0.3
				C307.7,143.1,307.7,145.4,306.3,146.6z"/>
			<path class="st0" d="M312.2,159c-4.9-0.4-9.8-0.3-14.5,0.3c2.9,3.7,5.3,7.8,7.3,12C307.6,167.6,310.2,163.4,312.2,159z"/>
			<path class="st0" d="M316.1,160.8c-1.7,0.9-3.9,0.3-4.9-1.4c-1-1.7-0.6-3.9,1-5c1.6-1.1,3.8-0.5,4.9,1.4
				C318.2,157.7,317.8,159.9,316.1,160.8z"/>
			<path class="st0" d="M319.2,174.2c-4.9-1.4-9.4-2.4-14.3-2.8c2,4.2,3.4,8.7,4.5,13.3C312.8,181.6,316.3,178,319.2,174.2z"/>
			<path class="st0" d="M322.5,176.8c-1.9,0.5-3.7-0.6-4.4-2.5c-0.7-1.8,0.2-3.9,2-4.6c1.8-0.7,3.8,0.4,4.6,2.4
				C325.5,174.1,324.3,176.3,322.5,176.8z"/>
			<path class="st0" d="M322.8,190.5c-4.5-2.4-8.8-4.4-13.4-5.8c1,4.6,1.4,9.3,1.5,14C314.9,196.3,318.9,193.6,322.8,190.5z"/>
			<path class="st0" d="M325.4,193.8c-1.9,0.1-3.5-1.4-3.7-3.4c-0.3-1.9,1-3.8,2.9-4.1c1.9-0.3,3.7,1.2,4,3.3
				C328.8,191.8,327.3,193.7,325.4,193.8z"/>
		</g>
		<g>
			<g>
				<polygon class="st0" points="248.6,132.9 246.3,196 243.9,132.9 				"/>
			</g>
			<g>
				<polygon class="st0" points="231.6,134.5 245.6,196.1 227,135.7 				"/>
			</g>
			<g>
				<polygon class="st0" points="215.5,140.4 245,196.2 211.4,142.7 				"/>
			</g>
			<g>
				<polygon class="st0" points="201.5,150.3 244.5,196.6 198.2,153.6 				"/>
			</g>
			<g>
				<polygon class="st0" points="190.5,163.4 244,197.1 188.2,167.5 				"/>
			</g>
			<g>
				<polygon class="st0" points="183.3,179 243.7,197.6 182.1,183.5 				"/>
			</g>
			<g>
				<polygon class="st0" points="180.4,195.9 243.6,198.3 180.4,200.6 				"/>
			</g>
			<g>
				<polygon class="st0" points="182,213 243.6,198.9 183.2,217.5 				"/>
			</g>
			<g>
				<polygon class="st0" points="187.9,229 243.8,199.5 190.2,233.1 				"/>
			</g>
			<g>
				<polygon class="st0" points="197.8,243 244.1,200.1 201.1,246.4 				"/>
			</g>
			<g>
				<polygon class="st0" points="210.9,254 244.6,200.5 215,256.4 				"/>
			</g>
			<g>
				<polygon class="st0" points="276.6,256.6 247,200.8 280.6,254.3 				"/>
			</g>
			<g>
				<polygon class="st0" points="290.6,246.8 247.6,200.4 293.9,243.4 				"/>
			</g>
			<g>
				<polygon class="st0" points="301.5,233.6 248,200 303.9,229.5 				"/>
			</g>
			<g>
				<polygon class="st0" points="308.7,218 248.3,199.4 309.9,213.5 				"/>
			</g>
			<g>
				<polygon class="st0" points="311.6,201.1 248.5,198.8 311.6,196.4 				"/>
			</g>
			<g>
				<polygon class="st0" points="310.1,184.1 248.5,198.1 308.9,179.5 				"/>
			</g>
			<g>
				<polygon class="st0" points="304.2,168 248.3,197.5 301.8,163.9 				"/>
			</g>
			<g>
				<polygon class="st0" points="294.3,154 248,196.9 291,150.6 				"/>
			</g>
			<g>
				<polygon class="st0" points="281.1,143 247.5,196.5 277,140.6 				"/>
			</g>
			<g>
				<polygon class="st0" points="265.5,135.8 246.9,196.2 261,134.6 				"/>
			</g>
		</g>
		<circle class="st0" cx="246.9" cy="197.7" r="5.2"/>
		<g>
			<path class="st0" d="M323,198.6c0-42.6-34.5-77.1-77-77.1c-42.6,0-77.1,34.5-77.1,77c0,20,7.6,38.3,20.2,52
				c1.4-0.2,2.8-0.4,4.2-0.5c-13-13.3-21-31.4-21-51.5c0-20.3,8.3-38.7,21.6-52.1c13.3-13.3,31.7-21.6,52.1-21.6
				c20.3,0,38.7,8.2,52.1,21.6c13.3,13.3,21.6,31.7,21.6,52.1c0,20.3-8.3,38.7-21.6,52.1c-11.1,11.1-25.8,18.7-42.2,20.9
				c0.7,1.1,0.9,2.2,0.8,3.4C294.1,269.7,323,237.6,323,198.6z"/>
		</g>
	</g>
	<polygon class="st0" points="28.3,45.7 14.3,62 41.7,62 	"/>
	<polygon class="st0" points="28.1,0 24.3,54.2 31.6,54.2 	"/>
	<rect x="13.8" y="63.9" class="st0" width="28.3" height="50.3"/>
	<rect x="7.2" y="134.2" class="st0" width="41.5" height="150.8"/>
	<path class="st1" d="M19.5,279.6l-3.6,0c-0.6,0-1-0.6-1-1.2l0-131.6c0-0.7,0.5-1.2,1-1.2l3.6,0c0.6,0,1,0.5,1,1.2l0,131.6
		C20.6,279,20.1,279.6,19.5,279.6z"/>
	<path class="st1" d="M30,279.6l-3.6,0c-0.6,0-1-0.6-1-1.2l0-131.6c0-0.7,0.5-1.2,1-1.2l3.6,0c0.6,0,1,0.5,1,1.2l0,131.6
		C31,279,30.6,279.6,30,279.6z"/>
	<path class="st1" d="M40.5,279.6l-3.6,0c-0.6,0-1-0.6-1-1.2l0-131.6c0-0.7,0.5-1.2,1-1.2l3.6,0c0.6,0,1,0.5,1,1.2l0,131.6
		C41.5,279,41,279.6,40.5,279.6z"/>
	<rect x="6.5" y="75.5" class="st0" width="42.9" height="51.9"/>
	<path class="st1" d="M11.4,86.5l-1.4,0c-0.6,0-1.1-0.4-1.1-0.9l0-6.3c0-0.5,0.5-0.9,1.1-0.9l1.4,0c0.6,0,1.1,0.4,1.1,0.9l0,6.3
		C12.5,86,12,86.5,11.4,86.5z"/>
	<path class="st1" d="M17.2,86.5l-1.4,0c-0.6,0-1.1-0.4-1.1-0.9l0-6.3c0-0.5,0.5-0.9,1.1-0.9l1.4,0c0.6,0,1.1,0.4,1.1,0.9l0,6.3
		C18.3,86,17.8,86.5,17.2,86.5z"/>
	<path class="st1" d="M22.9,86.5l-1.4,0c-0.6,0-1.1-0.4-1.1-0.9l0-6.3c0-0.5,0.5-0.9,1.1-0.9l1.4,0c0.6,0,1.1,0.4,1.1,0.9l0,6.3
		C24,86,23.5,86.5,22.9,86.5z"/>
	<path class="st1" d="M28.7,86.5l-1.4,0c-0.6,0-1.1-0.4-1.1-0.9l0-6.3c0-0.5,0.5-0.9,1.1-0.9l1.4,0c0.6,0,1.1,0.4,1.1,0.9l0,6.3
		C29.8,86,29.3,86.5,28.7,86.5z"/>
	<path class="st1" d="M34.5,86.5l-1.4,0c-0.6,0-1.1-0.4-1.1-0.9l0-6.3c0-0.5,0.5-0.9,1.1-0.9l1.4,0c0.6,0,1.1,0.4,1.1,0.9l0,6.3
		C35.6,86,35.1,86.5,34.5,86.5z"/>
	<path class="st1" d="M40.3,86.5l-1.4,0c-0.6,0-1.1-0.4-1.1-0.9l0-6.3c0-0.5,0.5-0.9,1.1-0.9l1.4,0c0.6,0,1.1,0.4,1.1,0.9l0,6.3
		C41.4,86,40.9,86.5,40.3,86.5z"/>
	<path class="st1" d="M46.1,86.5l-1.4,0c-0.6,0-1.1-0.4-1.1-0.9l0-6.3c0-0.5,0.5-0.9,1.1-0.9l1.4,0c0.6,0,1.1,0.4,1.1,0.9l0,6.3
		C47.1,86,46.7,86.5,46.1,86.5z"/>
	<path class="st0" d="M53.7,142.6l-51.5,0c-1.2,0-2.2-1-2.2-2.2l0-49.1C0,90,1,89,2.2,89l51.5,0c1.2,0,2.2,1,2.2,2.2l0,49.1
		C55.9,141.6,54.9,142.6,53.7,142.6z"/>
	<path class="st1" d="M48.1,135.1l-39.2,0c-1.2,0-2.1-1-2.1-2.1l0-37.3c0-1.2,1-2.1,2.1-2.1l39.2,0c1.2,0,2.1,0.9,2.1,2.1l0,37.3
		C50.2,134.1,49.3,135.1,48.1,135.1z"/>
	<g>
		<circle class="st0" cx="28" cy="114.5" r="19.3"/>
		<circle class="st1" cx="28" cy="114.5" r="12.7"/>
		<circle class="st0" cx="28" cy="114.8" r="2.7"/>
		<rect x="26.8" y="103.9" class="st0" width="1.7" height="11.1"/>
		
			<rect x="31.2" y="112.5" transform="matrix(0.5557 -0.8313 0.8313 0.5557 -83.8821 79.0463)" class="st0" width="1.7" height="11.1"/>
	</g>
	<g>
		<path class="st0" d="M265,248.5c0-2.3-1.9-4.1-4.1-4.1l-200.6-0.1c-2.3,0-4.1,1.9-4.1,4.1l0,35.1l8.6,0c0.9-11.1,14-20,30.1-20
			c16.1,0,29.2,8.8,30.1,20l5.2,0c0.9-11.1,14-20,30.1-20c16.1,0,29.2,8.8,30.1,20l5.2,0c0.9-11.1,14-20,30.1-20
			c16.1,0,29.2,8.8,30.1,20l9.2,0L265,248.5z"/>
	</g>
</g>
<g>
</g>
<g>
</g>
<g>
</g>
<g>
</g>
<g>
</g>
<g>
</g>
</svg>
