<?xml version="1.0" encoding="utf-8"?>
<!-- Generator: Adobe Illustrator 21.0.2, SVG Export Plug-In . SVG Version: 6.00 Build 0)  -->
<!DOCTYPE svg PUBLIC "-//W3C//DTD SVG 1.1//EN" "http://www.w3.org/Graphics/SVG/1.1/DTD/svg11.dtd">
<svg version="1.1" id="Layer_1" xmlns="http://www.w3.org/2000/svg" xmlns:xlink="http://www.w3.org/1999/xlink" x="0px" y="0px"
	 viewBox="0 0 98.7 75.2" style="enable-background:new 0 0 98.7 75.2;" xml:space="preserve">
<style type="text/css">
	.st0{fill:#DC143C;}
	.st1{fill:#FFFFFF;}
</style>
<g>
	<g>
		<path class="st0" d="M7.9,3.5c0,0,0,23.4-1.3,18.7L6.4,3.6L6,2.6L5.6,3.4c0,0,0.2,23.5-1.4,18.7L4,3.4L3.7,2.6L3.2,3.4
			c0,0,0.6,24-1.2,18.6L1.9,3.4L1.3,2.3c0,0-1.9,25.3-1.1,25.7c0,0,2.5,1.3,3.1,2.8c-0.1,0-0.1-0.1-0.1-0.1l0,0.3c0,0,0.1,0,0.1,0
			l0,0.3l-0.1,0c0,0,0.1,0,0.1,0l0,0.5l-0.1,0c0,0,0.1,0,0.1,0L2.2,73.1c0,0,3.3,3.2,5.9-0.6L5.7,32.1c0.1,0,0.1,0,0.1,0l-0.1,0
			l0-0.5c0.1,0,0.2,0,0.2,0l-0.2,0l0-0.3c0.1,0,0.2,0,0.2,0S6.8,29,9,28.1C9.9,27.7,8.7,2.4,8.7,2.4L7.9,3.5z"/>
		<path class="st0" d="M8.6,70.5c0,2.6-1.7,4.7-3.7,4.7H4.1c-2,0-3.7-2.1-3.7-4.7l0.9-27.3c0-2.6,0.8-4.7,2.9-4.7h0.8
			c2,0,2.9,2.1,2.9,4.7L8.6,70.5z"/>
	</g>
	<g>
		<path class="st0" d="M95.8,36.1L95.8,36.1l0-0.8l0-0.1c0,0,0,0,0,0l0-0.3c0.3-0.3,0.7-0.4,0.7-0.4c2-0.5,1.8-5.5,1.8-5.5L98.1,2.3
			c-0.5-4.9-3.8-0.5-3.8-0.5c-5.6,9.5-4.9,26.1-4.9,26.1c0,5.4,3.9,7,3.9,7l0.3,0.2v0c-0.1,0-0.2-0.1-0.2-0.1l0,0.3c0,0,0.1,0,0.1,0
			l-1.2,37.8c0,0,3.3,3,5.9-0.6L95.8,36.1L95.8,36.1z"/>
		<path class="st0" d="M98.7,70.5c0,2.6-1.7,4.7-3.7,4.7h-0.8c-2,0-3.7-2.1-3.7-4.7l0.9-27.3c0-2.6,0.8-4.7,2.9-4.7H95
			c2,0,2.9,2.1,2.9,4.7L98.7,70.5z"/>
	</g>
	<g>
		<circle class="st0" cx="49.9" cy="39.3" r="35.9"/>
		<circle class="st1" cx="49.9" cy="39.3" r="25.6"/>
	</g>
</g>
<g>
</g>
<g>
</g>
<g>
</g>
<g>
</g>
<g>
</g>
<g>
</g>
</svg>
