<?xml version="1.0" encoding="utf-8"?>
<!-- Generator: Adobe Illustrator 21.0.2, SVG Export Plug-In . SVG Version: 6.00 Build 0)  -->
<!DOCTYPE svg PUBLIC "-//W3C//DTD SVG 1.1//EN" "http://www.w3.org/Graphics/SVG/1.1/DTD/svg11.dtd">
<svg version="1.1" id="Layer_1" xmlns="http://www.w3.org/2000/svg" xmlns:xlink="http://www.w3.org/1999/xlink" x="0px" y="0px"
	 viewBox="0 0 61.3 78.2" style="enable-background:new 0 0 61.3 78.2;" xml:space="preserve">
<style type="text/css">
	.st0{fill:#DC143C;}
</style>
<g>
	<path class="st0" d="M50.9,28.4c0.4-0.6,0.6-1.2,0.8-1.8c0,0,0-0.1,0.1-0.1L61.3,9l-2.2-1.4l-7.9,12.9c-1,1.7-1.9,3-2.1,2.9
		l-1.5-0.9c-0.1-0.1,0.6-1.5,1.6-3.2l7.9-12.9l-2.3-1.4L47,18c-1,1.7-1.9,3-2.1,2.9L43.5,20c-0.1-0.1,0.6-1.5,1.6-3.2L53,3.9
		l-2.5-1.5l-7.9,12.9c-1,1.7-1.9,3-2.1,2.9l-1.5-0.9c-0.1-0.1,0.6-1.5,1.6-3.2l7.9-12.9l-2-1.2L35.4,16.6c-0.1,0.2-0.3,0.4-0.3,0.7
		c-0.3,0.3-0.6,0.7-0.8,1.1c-2,3.2-0.9,7.5,2.3,10.5L9,73.9c-0.7,1.1-0.3,2.6,0.8,3.4c1.1,0.7,2.6,0.3,3.3-0.8l27.6-45.2
		C44.7,32.6,48.9,31.5,50.9,28.4z"/>
	<path class="st0" d="M3.9,1.7c-7.6,1.4-3,15.5,3.9,27.2c4.8,8,10.8,14,15.9,16.1l19,32c0.7,1.2,2.2,1.5,3.3,0.9
		c1.2-0.7,1.5-2.2,0.9-3.3l-17.2-29c0,0,0.1,0,0.2-0.1L3.9,1.7z"/>
</g>
<g>
</g>
<g>
</g>
<g>
</g>
<g>
</g>
<g>
</g>
<g>
</g>
</svg>
